<?xml version="1.0" standalone="no"?>
<!DOCTYPE svg PUBLIC "-//W3C//DTD SVG 20010904//EN"
 "http://www.w3.org/TR/2001/REC-SVG-20010904/DTD/svg10.dtd">
<svg version="1.0" xmlns="http://www.w3.org/2000/svg"
 width="286.000000pt" height="309.000000pt" viewBox="0 0 286.000000 309.000000"
 preserveAspectRatio="xMidYMid meet">

<g transform="translate(0.000000,309.000000) scale(0.100000,-0.100000)"
fill="#000000" stroke="none">
<path d="M1074 3066 c-2 -6 -5 -53 -6 -105 l-3 -94 -94 -19 c-51 -10 -109 -25
-128 -33 -20 -8 -41 -15 -48 -15 -6 0 -60 38 -118 84 l-107 84 -148 -99 c-81
-55 -148 -104 -150 -109 -2 -5 35 -59 82 -119 47 -60 86 -115 86 -121 0 -7 -9
-24 -19 -39 -35 -48 -89 -164 -111 -238 l-22 -73 -144 0 -144 0 0 -240 0 -239
73 -21 c39 -12 105 -31 146 -43 l73 -22 25 -85 c13 -47 40 -123 59 -170 19
-47 42 -103 51 -126 l16 -40 -91 -137 -92 -136 201 -221 c111 -121 206 -220
211 -220 5 0 54 40 108 90 l99 90 67 -50 c91 -70 205 -135 291 -168 l72 -27
41 -165 c22 -91 45 -182 51 -202 l10 -38 244 0 245 0 2 206 3 206 58 24 c81
34 188 100 247 151 l49 44 131 -106 c72 -59 134 -105 140 -103 5 2 56 76 114
165 l105 163 -109 129 -110 129 21 59 c77 224 85 444 23 673 -116 436 -492
847 -945 1034 l-104 43 -33 89 c-18 49 -36 92 -40 96 -14 14 -374 76 -378 64z
m547 -421 c217 -38 424 -146 590 -307 424 -413 466 -1011 87 -1262 -117 -78
-292 -116 -447 -97 -144 18 -380 90 -454 139 l-28 19 36 27 c19 15 45 29 58
32 12 2 37 7 55 10 18 4 32 12 32 21 0 15 -99 133 -112 133 -8 0 -48 -82 -48
-98 0 -17 -70 -72 -92 -72 -13 0 -57 36 -120 99 -86 86 -99 103 -92 123 11 38
31 57 249 248 288 251 312 275 331 332 35 106 -29 237 -138 282 -46 20 -128
21 -171 2 -18 -8 -86 -62 -152 -120 -66 -58 -126 -106 -134 -106 -19 0 -127
-59 -145 -79 -13 -14 -9 -22 39 -76 l54 -60 34 33 c19 18 46 56 60 84 19 37
56 78 129 142 126 109 152 126 201 126 45 0 109 -31 132 -62 27 -39 37 -94 25
-138 -9 -35 -40 -65 -253 -251 -133 -116 -260 -231 -283 -255 l-40 -44 -42 87
c-171 366 -161 699 28 906 146 160 365 225 611 182z"/>
<path d="M2040 1962 l-53 -48 18 -27 c9 -15 22 -27 28 -27 11 0 97 76 110 98
10 15 -18 52 -38 52 -6 0 -35 -22 -65 -48z"/>
<path d="M890 1911 c0 -11 5 -21 11 -23 8 -3 8 -10 -2 -26 -12 -20 -11 -24 13
-48 26 -26 26 -26 52 -8 14 11 26 23 26 27 0 14 -74 97 -87 97 -7 0 -13 -9
-13 -19z m60 -87 c0 -17 -22 -14 -28 4 -2 7 3 12 12 12 9 0 16 -7 16 -16z"/>
<path d="M1853 1893 c-13 -2 -44 -24 -70 -48 -45 -40 -47 -44 -32 -61 88 -104
292 -334 296 -334 2 0 26 18 52 40 39 33 50 49 59 91 14 60 26 40 -116 202
-110 124 -111 125 -189 110z"/>
<path d="M2205 1782 c-30 -25 -55 -51 -55 -57 0 -7 10 -21 23 -33 l23 -21 58
52 c53 47 58 55 48 74 -20 37 -39 34 -97 -15z"/>
<path d="M1513 1683 c-100 -88 -143 -132 -143 -147 0 -13 62 -92 166 -211 91
-105 173 -195 181 -202 11 -8 21 -9 34 -2 22 11 283 239 287 250 3 8 -363 432
-376 436 -4 1 -71 -55 -149 -124z"/>
</g>
</svg>
